<?xml version="1.0" encoding="utf-8"?>
<!-- Generator: Adobe Illustrator 20.1.0, SVG Export Plug-In . SVG Version: 6.00 Build 0)  -->
<svg version="1.1" id="Layer_1" xmlns="http://www.w3.org/2000/svg" xmlns:xlink="http://www.w3.org/1999/xlink" x="0px" y="0px"
	 viewBox="0 0 143.7 104.8" style="enable-background:new 0 0 143.7 104.8;" xml:space="preserve">
<title>dc</title>
<path d="M143.7,104.8H0V0h143.7V104.8z M10,94.8h123.7V10H10V94.8z"/>
<g>
	<path d="M25.5,30.2h19.3c14.5,0,24.9,8.7,24.9,23s-10.4,23-24.8,23H25.5V30.2z M44.8,65.9c8.1,0,12.8-5.9,12.8-12.7
		c0-7.1-4.3-12.6-12.7-12.6h-7.5v25.3H44.8z"/>
	<path d="M73.3,53.2C73.3,39,84,29.4,98.2,29.4c11.1,0,17,6.3,20.1,12.4L108,46.6c-1.5-3.7-5.5-6.7-9.9-6.7
		c-7.5,0-12.8,5.8-12.8,13.3c0,7.5,5.3,13.3,12.8,13.3c4.4,0,8.3-3,9.9-6.7l10.2,4.8c-3,5.9-9,12.4-20.1,12.4
		C84,77,73.3,67.4,73.3,53.2z"/>
</g>
</svg>
